# Blender v2.83.8 OBJ File: 'house.blend'
# www.blender.org
mtllib house.mtl
o Cube
v 3.000000 4.000000 -2.500000
v 3.000000 0.000000 -2.500000
v 3.000000 4.000000 2.500000
v 3.000000 0.000000 2.500000
v -3.000000 4.000000 -2.500000
v -3.000000 0.000000 -2.500000
v -3.000000 4.000000 2.500000
v -3.000000 0.000000 2.500000
v 3.167668 4.088334 2.639723
v -3.167668 4.088334 2.639723
v 3.167668 4.088334 -2.639723
v -3.167668 4.088334 -2.639723
v 3.167668 6.088334 2.639723
v -3.167668 6.088334 2.639723
v 3.167668 6.088334 -2.639723
v -3.167668 6.088334 -2.639723
v 3.167668 8.088334 0.000000
v -3.167668 8.088334 0.000000
v 0.923796 4.088334 2.639723
v -0.963101 4.088334 2.639723
v 0.923796 6.088334 2.639723
v -0.963101 6.088334 2.639723
v 0.923796 6.088334 2.639723
v -0.963101 6.088334 2.639723
v 0.923796 6.088334 2.639723
v -0.963101 6.088334 2.639723
v 0.007181 8.088334 0.000000
v 0.008698 8.088334 0.000000
v -0.963101 6.088334 2.639723
v 0.923796 6.088334 2.639723
v -0.019653 8.011600 2.631657
v 0.923796 4.090311 3.129893
v -0.963101 4.090311 3.129893
v 0.923796 6.090311 3.129893
v -0.963101 6.090311 3.129893
v 0.923796 6.090311 3.129893
v -0.963101 6.090311 3.129893
v -0.019653 8.013577 3.121827
v -3.167668 7.088334 -1.319862
v 3.167668 7.088334 -1.319862
v -0.673898 7.088334 -1.319862
v -0.673898 6.588334 -1.979792
v -1.583834 7.088334 -1.319862
v -1.583834 6.588334 -1.979792
v -1.583834 7.880784 -1.354009
v -0.673898 7.880784 -1.354009
v -0.673898 7.837665 -1.976892
v -1.583834 7.837665 -1.976892
v -1.651959 7.960279 -1.312654
v -0.605772 7.960279 -1.312654
v -0.605772 7.910703 -2.028806
v -1.651959 7.910703 -2.028806
v -1.525864 8.069244 -1.425387
v -0.731867 8.069244 -1.425387
v -0.731867 8.034162 -1.932163
v -1.525864 8.034162 -1.932163
v -3.000000 0.000000 -0.833333
v -3.000000 0.000000 -0.023268
v -3.000000 2.491537 -0.023268
v -3.000000 2.491537 -0.833333
v -3.000000 0.690405 -0.023268
v -3.000000 0.690405 -0.833333
v -3.114726 2.491537 -0.023268
v -3.114726 2.491537 -0.833333
v -3.114726 0.690405 -0.023268
v -3.114726 0.690405 -0.833333
v -5.133932 0.000000 -0.833333
v -5.133932 0.000000 -0.023268
v -5.133932 0.690405 -0.023268
v -5.133932 0.690405 -0.833333
v -3.000000 0.000000 1.724955
v -5.133932 0.000000 1.724955
v -3.000000 0.690405 -1.176446
v -3.000000 0.000000 -1.176446
v -5.133932 0.690405 -1.176446
v -5.133932 0.000000 -1.176446
v -3.000000 0.690405 0.432826
v -3.000000 0.000000 1.724955
v -5.133932 0.000000 1.724955
v -5.133932 0.690405 0.432826
v 1.149071 4.000000 2.500000
v 0.793622 4.000000 2.500000
v -0.640240 4.000000 2.500000
v -1.015559 4.000000 2.500000
v -1.015559 0.000000 2.500000
v -0.640240 0.000000 2.500000
v 0.793622 0.000000 2.500000
v 1.149071 0.000000 2.500000
v -0.640240 4.000000 2.690464
v -1.015559 4.000000 2.690464
v -1.015559 0.000000 2.690464
v -0.640240 0.000000 2.690464
v 1.149071 4.000000 2.708941
v 0.793622 4.000000 2.708941
v 0.793622 0.000000 2.708941
v 1.149071 0.000000 2.708941
v -3.000000 3.129780 -0.023268
v -3.000000 2.994358 -0.023268
v -3.000000 3.129780 -0.833333
v -3.000000 2.994358 -0.833333
v -4.860364 2.580328 -0.023268
v -4.860364 2.444906 -0.023268
v -4.860364 2.580328 -0.833333
v -4.860364 2.444906 -0.833333
v -3.000000 3.129780 -1.106156
v -3.000000 2.994358 -1.106156
v -4.860364 2.580328 -1.106156
v -4.860364 2.444906 -1.106156
v -3.000000 3.129780 0.251515
v -3.000000 2.994358 0.251515
v -4.860364 2.580328 0.251515
v -4.860364 2.444906 0.251515
v -5.029131 2.580328 -0.833333
v -5.029131 2.444906 -0.833333
v -5.029131 2.580328 -1.106156
v -5.029131 2.444906 -1.106156
v -4.996508 2.580328 -0.023268
v -4.996508 2.444906 -0.023268
v -4.996508 2.580328 0.251515
v -4.996508 2.444906 0.251515
v -4.860364 0.649468 -0.833333
v -4.860364 0.649468 -1.106156
v -4.860364 0.649468 0.251515
v -4.860364 0.649468 -0.023268
v -5.029131 0.649468 -0.833333
v -5.029131 0.649468 -1.106156
v -4.996508 0.649468 0.251515
v -4.996508 0.649468 -0.023268
v -1.651959 8.076491 -1.320699
v -0.605772 8.076491 -1.320699
v -0.605772 8.026915 -2.036851
v -1.651959 8.026915 -2.036851
v -1.525864 7.572514 -1.390999
v -0.731867 7.572514 -1.390999
v -0.731867 7.537431 -1.897776
v -1.525864 7.537431 -1.897776
vt 0.625000 0.250000
vt 0.625000 0.000000
vt 0.625000 0.000000
vt 0.625000 0.250000
vt -0.628189 0.749362
vt 1.628189 0.749362
vt 1.628189 1.200638
vt -0.628189 1.200638
vt 0.125000 0.500000
vt 0.375000 0.500000
vt 0.375000 0.750000
vt 0.325000 0.750000
vt 0.275000 0.750000
vt 0.225000 0.750000
vt 0.175000 0.750000
vt 0.125000 0.750000
vt 0.125000 0.623837
vt 0.125000 0.583333
vt -0.152088 -0.027088
vt 1.152088 -0.027088
vt 1.152088 1.277088
vt -0.152088 1.277088
vt -0.235272 -0.360272
vt 1.235273 -0.360272
vt 1.235273 1.110272
vt -0.235272 1.110272
vt 0.625000 0.750000
vt 0.625000 0.500000
vt 0.625000 0.500000
vt 0.625000 0.562500
vt 0.625000 0.625000
vt 0.625000 0.750000
vt 0.625000 0.750000
vt 0.625000 0.500000
vt 0.625000 1.000000
vt 0.625000 0.950000
vt 0.625000 0.900000
vt 0.625000 0.850000
vt 0.625000 0.800000
vt 0.625000 0.875000
vt 0.625000 0.937500
vt 0.625000 1.000000
vt 0.625000 0.669401
vt 0.625000 -0.419401
vt 0.625000 -0.419401
vt 0.625000 0.125000
vt 0.625000 0.397201
vt 0.625000 0.669401
vt 0.625000 0.250000
vt 0.750000 0.562500
vt 0.812500 0.562500
vt 0.875000 0.562500
vt 0.875000 0.625000
vt 0.625000 0.937500
vt 0.625000 1.000000
vt 0.812500 0.750000
vt 0.750000 0.750000
vt 0.750000 0.750000
vt 0.812500 0.750000
vt 0.625000 0.875000
vt 0.812500 0.750000
vt 0.812500 0.625000
vt 0.750000 0.625000
vt 0.750000 0.750000
vt 0.750000 0.750000
vt 0.750000 0.750000
vt 0.875000 0.750000
vt 0.812500 0.750000
vt 0.812500 0.750000
vt 0.625000 0.875000
vt 0.625000 0.937500
vt 0.625000 0.875000
vt 0.625000 0.937500
vt 0.625000 0.937500
vt 0.625000 0.875000
vt 0.625000 0.875000
vt 0.625000 0.937500
vt 0.781250 0.687500
vt 0.781250 0.687500
vt 0.875000 0.500000
vt 0.812500 0.531250
vt 0.750000 0.531250
vt 0.812500 0.562500
vt 0.812500 0.531250
vt 0.750000 0.562500
vt 0.750000 0.531250
vt 0.750000 0.531250
vt 0.750000 0.562500
vt 0.812500 0.531250
vt 0.812500 0.531250
vt 0.750000 0.531250
vt 0.812500 0.562500
vt 0.757533 0.535818
vt 0.804967 0.535818
vt 0.804967 0.535818
vt 0.757533 0.535818
vt 0.750000 0.562500
vt 0.812500 0.562500
vt 1.244732 -0.312750
vt 1.134025 0.419675
vt -0.134025 0.419675
vt -0.134025 -0.003008
vt 0.182987 -0.003008
vt 0.500000 -0.003008
vt 0.711341 -0.003008
vt 0.583333 0.166667
vt 0.996488 0.438914
vt 0.748244 0.438914
vt 0.500000 0.438914
vt 0.127634 0.438914
vt -0.244733 0.438914
vt -0.244733 -0.312750
vt 0.437500 0.166667
vt 0.437500 0.126163
vt 0.437500 0.126163
vt 0.437500 0.166667
vt 0.437500 0.126163
vt 0.375000 0.126163
vt 0.375000 0.126163
vt 0.375000 0.126163
vt 0.437500 0.126163
vt 0.500000 0.126163
vt 0.500000 0.166667
vt 0.500000 0.126163
vt 0.500000 0.166667
vt 0.437500 0.166667
vt 0.375000 0.166667
vt 0.437500 0.166667
vt 0.437500 0.166667
vt 0.125000 0.623837
vt 0.125000 0.583333
vt 0.437500 0.126163
vt 0.375000 0.126163
vt 0.375000 0.126163
vt 0.375000 0.126163
vt 0.125000 0.623837
vt 0.125000 0.623837
vt 0.375000 0.166667
vt 0.375000 0.166667
vt 0.375000 0.166667
vt 0.125000 0.583333
vt 0.125000 0.583333
vt -0.370785 0.600843
vt 1.370784 0.600843
vt 1.370784 0.949157
vt -0.370785 0.949157
vt 0.625000 0.850000
vt 0.625000 0.800000
vt -0.527667 0.669466
vt 1.527666 0.669467
vt 1.527666 1.080533
vt -0.527667 1.080534
vt 0.375000 0.900000
vt 0.625000 0.900000
vt 0.375000 0.900000
vt -0.067547 0.811491
vt 1.067547 0.811490
vt 1.067547 1.038509
vt -0.067547 1.038510
vt 0.375000 0.950000
vt 0.375000 0.950000
vt 0.625000 0.950000
vt 0.225000 0.750000
vt 0.175000 0.750000
vt 0.375000 0.800000
vt 0.375000 0.850000
vt 0.375000 0.800000
vt 0.375000 0.850000
vt 0.325000 0.750000
vt 0.275000 0.750000
vt 0.541667 0.126163
vt 0.541667 0.166667
vt 0.541667 0.126163
vt 0.541667 0.166667
vt 0.583333 0.126163
vt 0.583333 0.166667
vt 0.583333 0.126163
vt 0.541667 0.166667
vt 0.541667 0.166667
vt 0.541667 0.126163
vt 0.541667 0.126163
vt 0.583333 0.166667
vt 0.583333 0.166667
vt 0.541667 0.166667
vt 0.583333 0.166667
vt 0.583333 0.126163
vt 0.583333 0.126163
vt 0.541667 0.126163
vt 0.583333 0.126163
vt 0.541667 0.166667
vt 0.583333 0.166667
vt 0.541667 0.166667
vt 0.541667 0.166667
vt 0.541667 0.126163
vt 0.583333 0.126163
vt 0.541667 0.166667
vt 0.541667 0.166667
vt 0.541667 0.126163
vt 0.541667 0.126163
vt 0.541667 0.126163
vt 0.541667 0.126163
vt 0.757533 0.557932
vt 0.804967 0.557932
vt 0.804967 0.557932
vt 0.757533 0.557932
vn -0.4661 -0.8847 0.0000
vn 0.0000 0.0000 1.0000
vn 0.0000 -1.0000 0.0000
vn 1.0000 0.0000 0.0000
vn 0.0000 0.0000 -1.0000
vn 0.4661 -0.8847 0.0000
vn 0.0000 -0.8452 -0.5344
vn 0.0000 -0.8452 0.5344
vn -1.0000 0.0000 0.0000
vn 0.0000 0.7971 -0.6039
vn 0.0000 -1.0000 0.0040
vn 0.0000 0.7971 0.6039
vn 0.0000 -0.9996 -0.0292
vn -0.8978 0.4404 0.0032
vn -0.8978 0.4404 -0.0018
vn 0.8975 0.4404 0.0220
vn 0.0000 0.0042 1.0000
vn 0.8978 0.4404 -0.0018
vn 0.0000 1.0000 -0.0040
vn 0.7466 -0.6637 0.0459
vn 0.0000 0.0023 -1.0000
vn 0.0000 0.0431 0.9991
vn 0.0000 -0.0691 -0.9976
vn 0.0000 -0.5793 -0.8151
vn 0.0000 -0.4615 0.8871
vn -0.7466 -0.6637 0.0459
vn 0.0000 0.0691 0.9976
vn 0.0000 1.0000 0.0000
vn 0.0000 0.8820 0.4713
vn 0.2833 -0.9590 0.0000
vn -0.2833 0.9590 0.0000
vn 0.0000 0.9976 -0.0691
usemtl Material
s off
f 5/1/1 7/2/1 10/3/1 12/4/1
f 85/5/2 84/6/2 7/7/2 8/8/2
f 6/9/3 2/10/3 4/11/3 88/12/3 87/13/3 86/14/3 85/15/3 8/16/3 58/17/3 57/18/3
f 2/19/4 1/20/4 3/21/4 4/22/4
f 6/23/5 5/24/5 1/25/5 2/26/5
f 9/27/4 11/28/4 15/29/4 40/30/4 17/31/4 13/32/4
f 3/33/6 1/34/6 11/28/6 9/27/6
f 1/34/7 5/1/7 12/4/7 11/28/7
f 7/35/8 84/36/8 83/37/8 82/38/8 81/39/8 3/33/8 9/27/8 19/40/8 20/41/8 10/42/8
f 12/43/9 10/44/9 14/45/9 18/46/9 39/47/9 16/48/9
f 11/28/5 12/4/5 16/49/5 15/29/5
f 40/30/10 41/50/10 43/51/10 39/52/10 18/53/10 17/31/10
f 10/42/2 20/41/2 22/54/2 14/55/2
f 29/56/11 30/57/11 36/58/11 37/59/11
f 19/40/2 9/27/2 13/32/2 21/60/2
f 26/61/12 29/56/12 28/62/12 27/63/12 30/57/12 25/64/12 23/65/12 21/66/12 13/32/12 17/31/12 18/53/12 14/67/12 22/68/12 24/69/12
f 22/54/2 21/60/2 23/70/2 24/71/2
f 24/71/2 23/70/2 25/72/2 26/73/2
f 33/74/2 32/75/2 34/76/2 35/77/2
f 25/64/2 30/57/2 29/56/2 26/61/2
f 27/63/13 28/62/13 31/78/13
f 28/62/14 29/56/14 31/78/14
f 31/78/15 29/56/15 37/59/15 38/79/15
f 30/57/16 27/63/16 31/78/16
f 37/59/17 36/58/17 38/79/17
f 22/54/9 20/41/9 33/74/9 35/77/9
f 30/57/18 31/78/18 38/79/18 36/58/18
f 21/60/19 22/54/19 35/77/19 34/76/19
f 20/41/11 19/40/11 32/75/11 33/74/11
f 19/40/4 21/60/4 34/76/4 32/75/4
f 15/29/10 16/80/10 39/52/10 43/51/10 44/81/10 42/82/10 41/50/10 40/30/10
f 44/81/9 43/51/9 45/83/9 48/84/9
f 46/85/20 47/86/20 51/87/20 50/88/20
f 41/50/4 42/82/4 47/86/4 46/85/4
f 42/82/21 44/81/21 48/84/21 47/86/21
f 43/51/22 41/50/22 46/85/22 45/83/22
f 51/87/23 52/89/23 132/90/23 131/91/23
f 47/86/24 48/84/24 52/89/24 51/87/24
f 45/83/25 46/85/25 50/88/25 49/92/25
f 48/84/26 45/83/26 49/92/26 52/89/26
f 55/93/27 56/94/27 136/95/27 135/96/27
f 49/92/27 50/88/27 130/97/27 129/98/27
f 52/89/9 49/92/9 129/98/9 132/90/9
f 50/88/4 51/87/4 131/91/4 130/97/4
f 7/99/9 5/100/9 6/101/9 57/102/9 62/103/9 60/104/9 100/105/9 99/106/9 97/107/9 98/108/9 59/109/9 61/110/9 58/111/9 8/112/9
f 62/113/3 61/114/3 65/115/3 66/116/3
f 69/117/9 68/118/9 72/119/9 79/120/9 80/121/9
f 65/115/9 63/122/9 64/123/9 66/116/9
f 61/114/2 59/124/2 63/122/2 65/115/2
f 60/125/5 62/113/5 66/116/5 64/123/5
f 59/124/28 60/125/28 64/123/28 63/122/28
f 68/118/9 69/117/9 70/126/9 67/127/9
f 61/114/28 62/113/28 70/126/28 69/117/28
f 70/126/28 62/113/28 73/128/28 75/129/28
f 57/18/3 58/17/3 68/130/3 67/131/3
f 61/114/28 69/117/28 80/121/28 77/132/28
f 58/133/4 61/114/4 77/132/4 78/134/4 71/135/4
f 68/130/3 58/17/3 71/136/3 72/137/3
f 73/128/5 74/138/5 76/139/5 75/129/5
f 67/127/9 70/126/9 75/129/9 76/139/9
f 62/113/4 57/140/4 74/138/4 73/128/4
f 57/18/3 67/131/3 76/141/3 74/142/3
f 77/132/29 80/121/29 79/120/29 78/134/29
f 71/135/2 78/134/2 79/120/2 72/119/2
f 4/143/2 3/144/2 81/145/2 88/146/2
f 81/39/28 82/38/28 94/147/28 93/148/28
f 87/149/2 82/150/2 83/151/2 86/152/2
f 86/153/4 83/37/4 89/154/4 92/155/4
f 92/156/2 89/157/2 90/158/2 91/159/2
f 84/36/9 85/160/9 91/161/9 90/162/9
f 85/15/3 86/14/3 92/163/3 91/164/3
f 83/37/28 84/36/28 90/162/28 89/154/28
f 96/165/2 93/148/2 94/147/2 95/166/2
f 88/167/4 81/39/4 93/148/4 96/165/4
f 82/38/9 87/168/9 95/166/9 94/147/9
f 87/13/3 88/12/3 96/169/3 95/170/3
f 59/124/9 98/171/9 100/172/9 60/125/9
f 100/172/30 98/171/30 102/173/30 104/174/30
f 102/173/9 101/175/9 103/176/9 104/174/9
f 97/177/31 99/106/31 103/176/31 101/175/31
f 100/172/30 104/174/30 108/178/30 106/179/30
f 102/173/30 98/171/30 110/180/30 112/181/30
f 105/182/5 106/179/5 108/178/5 107/183/5
f 107/183/5 108/178/5 116/184/5 115/185/5
f 99/106/4 100/172/4 106/179/4 105/182/4
f 103/176/31 99/106/31 105/182/31 107/183/31
f 110/180/2 109/186/2 111/187/2 112/181/2
f 101/175/5 102/173/5 118/188/5 117/189/5
f 97/177/31 101/175/31 111/187/31 109/186/31
f 98/171/4 97/177/4 109/186/4 110/180/4
f 114/190/9 113/191/9 115/185/9 116/184/9
f 103/176/28 107/183/28 115/185/28 113/191/28
f 104/174/2 103/176/2 113/191/2 114/190/2
f 104/174/2 114/190/2 125/192/2 121/193/2
f 117/189/9 118/188/9 120/194/9 119/195/9
f 111/187/28 101/175/28 117/189/28 119/195/28
f 114/190/9 116/184/9 126/196/9 125/192/9
f 112/181/2 111/187/2 119/195/2 120/194/2
f 122/197/3 121/193/3 125/192/3 126/196/3
f 124/198/3 123/199/3 127/200/3 128/201/3
f 118/188/5 102/173/5 124/198/5 128/201/5
f 120/194/9 118/188/9 128/201/9 127/200/9
f 108/178/4 104/174/4 121/193/4 122/197/4
f 102/173/4 112/181/4 123/199/4 124/198/4
f 112/181/2 120/194/2 127/200/2 123/199/2
f 116/184/5 108/178/5 122/197/5 126/196/5
f 54/202/32 53/203/32 129/98/32 130/97/32
f 55/93/32 54/202/32 130/97/32 131/91/32
f 56/94/32 55/93/32 131/91/32 132/90/32
f 53/203/32 56/94/32 132/90/32 129/98/32
f 133/204/32 134/205/32 135/96/32 136/95/32
f 53/203/23 54/202/23 134/205/23 133/204/23
f 56/94/4 53/203/4 133/204/4 136/95/4
f 54/202/9 55/93/9 135/96/9 134/205/9
